<svg width="26" height="18" viewBox="0 0 26 18" fill="none" xmlns="http://www.w3.org/2000/svg">
<path d="M25.2279 6.008C25.3222 5.79459 25.3613 5.56094 25.3418 5.32847C25.3224 5.096 25.2448 4.87213 25.1164 4.67739C24.7742 4.01969 22.4045 3.85749 22.511 4.63557C22.554 4.94985 22.6377 5.16274 22.2499 5.20076C22.1825 5.0712 22.1244 4.93695 22.0763 4.79905L21.4047 2.73725C21.128 1.91812 20.5461 1.23725 19.78 0.836383L19.3074 0.582935C18.5918 0.200724 17.7932 0.000524238 16.982 4.26453e-06H8.37107C7.55931 -0.00106201 6.75979 0.19784 6.04315 0.579133L5.57174 0.832582C4.8057 1.23345 4.22378 1.91432 3.94713 2.73344L3.27043 4.79271C3.22274 4.93101 3.16515 5.06569 3.09808 5.19569C2.70777 5.15768 2.79268 4.94225 2.83576 4.6305C2.94221 3.85242 0.57247 4.01462 0.230315 4.67232C0.10187 4.86707 0.0243538 5.09093 0.00487036 5.3234C-0.014613 5.55588 0.0245592 5.78952 0.118797 6.00293C0.437041 6.21188 0.795375 6.35216 1.1709 6.41478C1.54643 6.47741 1.93089 6.461 2.29972 6.36662L0.932366 8.03558C0.458453 8.53407 0.19595 9.19669 0.199901 9.88449L0.236651 16.682C0.252152 17.0424 0.408974 17.3823 0.673179 17.628C0.937384 17.8737 1.28772 18.0055 1.64836 17.9948H3.7317C3.89788 18.0004 4.05956 17.9403 4.18189 17.8277C4.30421 17.7151 4.37738 17.559 4.3856 17.3929V17.3663L4.35012 15.8405H21.0042L20.9675 17.3739C20.9675 17.5419 21.0342 17.7031 21.153 17.8219C21.2719 17.9407 21.433 18.0075 21.6011 18.0075H23.7098C24.0717 18.0188 24.4234 17.8866 24.6883 17.6398C24.9532 17.3929 25.1098 17.0514 25.124 16.6896L25.162 9.89209C25.166 9.20429 24.9035 8.54167 24.4296 8.04318L23.047 6.36536C23.4154 6.46066 23.7996 6.4781 24.1751 6.41656C24.5506 6.35503 24.9092 6.21588 25.2279 6.008ZM4.29436 5.06897C4.33073 4.00247 4.78864 2.99394 5.56762 2.26461C6.3466 1.53528 7.38306 1.1447 8.44964 1.17854H16.8971C17.9651 1.14505 19.0027 1.53671 19.7823 2.26753C20.5618 2.99836 21.0195 4.00862 21.0549 5.07657V5.64683C21.0546 5.68862 21.0377 5.72859 21.0081 5.75802C20.9784 5.78746 20.9383 5.80397 20.8965 5.80397H4.4515C4.40982 5.80397 4.36985 5.78741 4.34038 5.75795C4.31091 5.72848 4.29436 5.68851 4.29436 5.64683V5.06897ZM6.05963 10.1747C6.03159 10.2184 5.99323 10.2546 5.94793 10.28C5.90263 10.3054 5.85177 10.3193 5.79984 10.3204H1.92208C1.74974 10.3204 1.39238 10.2418 1.39238 9.71848L1.65469 8.3638C1.74467 7.89238 2.67609 7.919 3.09048 8.16611L5.95698 9.74636C6.02767 9.79056 6.0781 9.86084 6.09731 9.94197C6.11653 10.0231 6.10299 10.1085 6.05963 10.1798V10.1747ZM23.6984 8.3638L23.9607 9.72355C23.9607 10.2469 23.6033 10.3255 23.431 10.3255H19.5532C19.4858 10.3239 19.4207 10.3005 19.3676 10.2589C19.3145 10.2173 19.2763 10.1596 19.2586 10.0945C19.241 10.0294 19.2448 9.96038 19.2696 9.89764C19.2943 9.8349 19.3387 9.78184 19.3961 9.74636L22.2676 8.16611C22.6706 7.919 23.602 7.88985 23.6984 8.3638Z" fill="white"/>
</svg>
